<svg width="764" height="481" viewBox="0 0 764 481" fill="none" xmlns="http://www.w3.org/2000/svg">
<path d="M745.225 480.649C745.225 477.354 745.046 292.653 744.718 7.5376L745.225 7.93495H16.4173L17.0433 7.46748C17.0433 178.728 17.0433 340.359 17.0433 480.579L16.5067 480.159L745.404 480.579L16.5067 481H16V480.579C16 340.336 16 178.728 16 7.46748V7H16.6856H745.493H746V7.39735C745.434 292.653 745.225 477.354 745.225 480.649Z" fill="#263238"/>
<path d="M600.75 340H400.25C396.798 340 394 341.984 394 344.43V345.57C394 348.016 396.798 350 400.25 350H600.75C604.202 350 607 348.016 607 345.57V344.43C607 341.984 604.202 340 600.75 340Z" fill="#E0E0E0"/>
<path d="M600.75 362H400.25C396.798 362 394 363.984 394 366.43V367.57C394 370.016 396.798 372 400.25 372H600.75C604.202 372 607 370.016 607 367.57V366.43C607 363.984 604.202 362 600.75 362Z" fill="#E0E0E0"/>
<path d="M505.74 382H400.26C396.803 382 394 384.182 394 386.873V388.127C394 390.818 396.803 393 400.26 393H505.74C509.197 393 512 390.818 512 388.127V386.873C512 384.182 509.197 382 505.74 382Z" fill="#E0E0E0"/>
<path d="M744.516 0H19.4841C8.72333 0 0 5.76088 0 12.8673V16.1327C0 23.2391 8.72333 29 19.4841 29H744.516C755.277 29 764 23.2391 764 16.1327V12.8673C764 5.76088 755.277 0 744.516 0Z" fill="#263238"/>
<path d="M469.656 71H277.344C272.184 71 268 74.1809 268 78.1046V79.8954C268 83.8191 272.184 87 277.344 87H469.656C474.816 87 479 83.8191 479 79.8954V78.1046C479 74.1809 474.816 71 469.656 71Z" fill="#6C63FF"/>
</svg>
