 
    <svg id="visual" viewBox="0 0 1920 1080" width="1920" height="1080" xmlns="http://www.w3.org/2000/svg" xmlns:xlink="http://www.w3.org/1999/xlink" version="1.1">
                    <path d="M1020 0L991.3 22.5C962.7 45 905.3 90 867.7 135C830 180 812 225 814.2 270C816.3 315 838.7 360 885.3 405C932 450 1003 495 1015 540C1027 585 980 630 933 675C886 720 839 765 850.7 810C862.3 855 932.7 900 941.8 945C951 990 899 1035 873 1057.5L847 1080L0 1080L0 1057.5C0 1035 0 990 0 945C0 900 0 855 0 810C0 765 0 720 0 675C0 630 0 585 0 540C0 495 0 450 0 405C0 360 0 315 0 270C0 225 0 180 0 135C0 90 0 45 0 22.5L0 0Z" fill="#CACACA" stroke-linecap="round" stroke-linejoin="miter">
                    </path>
                </svg>
 