<svg width="1712" height="836" viewBox="0 0 1712 836" fill="none" xmlns="http://www.w3.org/2000/svg">
<path d="M79.0752 713.665C79.326 703.215 84.5836 693.2 93.8464 685.53C98.3264 699.656 79.0752 713.665 79.0752 713.665Z" fill="#EBEBEB"/>
<path d="M100.528 705.699C113.149 701.726 127.234 701.447 140.106 704.914C124.976 713.645 100.528 705.699 100.528 705.699Z" fill="#EBEBEB"/>
<path d="M102.96 696.556C100.935 688.466 102.857 680.087 108.362 673.012C114.838 683.332 102.96 696.556 102.96 696.556Z" fill="#EBEBEB"/>
<path d="M19.9905 663.535C51.3505 669.951 68.1697 690.846 68.1697 690.846C41.3665 690.866 19.9905 663.535 19.9905 663.535Z" fill="#EBEBEB"/>
<path d="M70.0896 673.404C68.4512 647.486 101.501 618.154 101.501 618.154C96.3808 650.331 70.0896 673.404 70.0896 673.404Z" fill="#EBEBEB"/>
<path d="M69.936 599.594C70.571 612.577 66.4471 625.437 58.032 636.715C53.3728 620.038 69.936 599.594 69.936 599.594Z" fill="#EBEBEB"/>
<path d="M57.1873 652.234C32.4577 650.272 19.0177 631.359 19.0177 631.359C48.9185 637.774 57.1873 652.234 57.1873 652.234Z" fill="#EBEBEB"/>
<path d="M3.86243 731.48C15.4532 725.967 29.288 723.92 42.7232 725.731C29.6672 736.306 3.86243 731.48 3.86243 731.48Z" fill="#EBEBEB"/>
<path d="M67.9136 739.975C64.7667 746.113 58.8789 751.195 51.2992 754.317C52.3744 745.586 67.9136 739.975 67.9136 739.975Z" fill="#EBEBEB"/>
<path d="M64.7393 737.189C55.8097 741.158 45.3407 742.589 35.1713 741.231C44.6945 733.638 64.7393 737.189 64.7393 737.189Z" fill="#EBEBEB"/>
<path d="M77.3857 772.073C77.3643 771.943 77.3643 771.811 77.3857 771.681C77.3857 771.387 77.3857 771.014 77.3857 770.562V766.207C77.3857 764.245 77.3857 762.028 77.3857 759.34C77.3857 756.652 77.3857 753.63 77.1553 750.256C76.9249 743.526 76.3105 735.502 75.4145 726.614C74.5185 717.726 73.0081 708.014 71.0625 697.831C67.1457 677.485 61.8209 659.297 57.5201 646.231C55.3697 639.697 53.5521 634.459 52.2209 630.79C51.5809 629.024 51.0945 627.611 50.7361 626.591L50.3777 625.492C50.3777 625.257 50.3777 625.119 50.3777 625.119C50.4471 625.234 50.507 625.352 50.5569 625.473L51.0177 626.552L52.7073 630.692C54.1665 634.302 56.1121 639.56 58.3649 646.074C64.2149 663.08 68.8469 680.319 72.2401 697.713C74.1857 707.896 75.5425 717.667 76.5153 726.555C77.4881 735.443 77.8977 743.487 78.0001 750.236C78.1537 753.611 78.0001 756.672 78.0001 759.34C78.0001 762.008 78.0001 764.343 77.8465 766.226C77.6929 768.11 77.6929 769.503 77.6417 770.562C77.6417 771.014 77.6417 771.387 77.6417 771.7C77.6417 772.014 77.4113 772.073 77.3857 772.073Z" fill="#E0E0E0"/>
<path d="M31.9969 717.216C32.1761 717.02 42.2369 722.042 54.3201 728.419C66.4033 734.795 76.1825 740.191 76.0289 740.348C75.8753 740.505 65.7889 735.521 53.7057 729.125C41.6225 722.729 31.8433 717.412 31.9969 717.216Z" fill="#E0E0E0"/>
<path d="M76.0288 719.982C76.0288 719.982 76.5152 719.472 77.5392 718.687L81.9936 715.411L96.8672 704.718L111.715 694.045L116.221 690.807C116.747 690.387 117.33 690.012 117.962 689.689C117.561 690.185 117.079 690.64 116.528 691.043C115.555 691.886 113.968 693.005 112.278 694.476C108.618 697.341 103.446 701.186 97.6096 705.346C91.7728 709.505 86.448 713.194 82.5312 715.862L77.8464 718.942C77.2895 719.337 76.6803 719.685 76.0288 719.982Z" fill="#E0E0E0"/>
<path d="M0.278442 704.914C0.278442 704.914 25.8784 704.541 36.6304 719.963C29.461 719.796 22.4414 718.348 16.1305 715.736C9.81953 713.123 4.39148 709.418 0.278442 704.914Z" fill="#EBEBEB"/>
<path d="M35.1712 697.066C35.1712 697.066 55.9584 708.426 52.656 725.75C47.0301 722.342 42.52 717.974 39.4846 712.994C36.4491 708.014 34.9721 702.56 35.1712 697.066Z" fill="#EBEBEB"/>
<path d="M144.739 669.049C144.739 669.049 136.522 690.984 110.435 694.908C113.139 688.851 117.647 683.361 123.602 678.873C129.556 674.384 136.793 671.02 144.739 669.049Z" fill="#EBEBEB"/>
<path d="M23.8048 587.567C23.8048 587.567 56.4192 603.871 52.8096 630.358C43.9585 625.451 36.7264 619.026 31.6905 611.597C26.6545 604.167 23.9542 595.938 23.8048 587.567Z" fill="#EBEBEB"/>
<path d="M132.298 732.519C131.651 733.008 130.939 733.442 130.173 733.814C128.765 734.599 126.768 735.776 124.336 737.248C111.645 744.948 100.74 754.235 92.08 764.716C90.416 766.678 89.136 768.365 88.2656 769.523C87.8626 770.149 87.3735 770.741 86.8064 771.288C87.0573 770.603 87.4185 769.944 87.8816 769.326C88.624 768.13 89.8272 766.423 91.4144 764.363C99.7472 753.591 110.769 744.183 123.85 736.679C126.41 735.247 128.458 734.148 129.942 733.442C130.679 733.066 131.469 732.756 132.298 732.519Z" fill="#E0E0E0"/>
<path d="M103.933 748.784C101.582 738.49 104.242 727.892 111.408 719.001C114.915 737.581 103.933 748.784 103.933 748.784Z" fill="#EBEBEB"/>
<path d="M125.872 739.622C134.5 735.879 144.623 734.699 154.314 736.306C138.595 742.643 125.872 739.622 125.872 739.622Z" fill="#EBEBEB"/>
<path d="M29.8464 774.114L42.0832 835.701H113.123L129.635 774.997L29.8464 774.114Z" fill="#EBEBEB"/>
<path d="M119.702 813.589C119.702 813.766 101.475 813.903 79.0241 813.903C56.5729 813.903 38.3201 813.766 38.3201 813.589C38.3201 813.413 56.5217 813.275 78.9729 813.275C101.424 813.275 119.702 813.413 119.702 813.589Z" fill="#FAFAFA"/>
<path d="M119.958 810.568C119.958 810.744 101.629 810.882 78.9985 810.882C56.3681 810.882 38.0385 810.744 38.0385 810.568C38.0385 810.391 56.3681 810.234 78.9985 810.234C101.629 810.234 119.958 810.391 119.958 810.568Z" fill="#FAFAFA"/>
<path d="M119.83 807.134C119.83 807.311 101.501 807.468 78.8704 807.468C56.24 807.468 37.9104 807.311 37.9104 807.134C37.9104 806.958 56.24 806.82 78.8704 806.82C101.501 806.82 119.83 806.938 119.83 807.134Z" fill="#FAFAFA"/>
<path d="M50.2496 832.189C49.2483 829.656 48.5205 827.064 48.0736 824.439C47.3479 821.855 46.8942 819.231 46.7168 816.591C47.7108 819.126 48.4384 821.717 48.8928 824.341C49.6171 826.925 50.0708 829.549 50.2496 832.189Z" fill="#FAFAFA"/>
<path d="M55.0881 831.542C54.571 829.035 54.2717 826.505 54.1921 823.968C53.8362 821.447 53.6823 818.911 53.7313 816.375C54.5061 818.852 54.9436 821.383 55.0369 823.929C55.3758 826.459 55.393 829.009 55.0881 831.542Z" fill="#FAFAFA"/>
<path d="M63.9201 831.542C62.9367 828.984 62.3186 826.353 62.0769 823.694C61.5538 821.098 61.3652 818.469 61.5137 815.846C62.188 818.437 62.6497 821.058 62.8961 823.694C63.4247 826.293 63.7665 828.913 63.9201 831.542Z" fill="#FAFAFA"/>
<path d="M70.0641 831.855C69.4018 829.271 69.0759 826.642 69.0913 824.007C68.8511 821.39 68.954 818.761 69.3985 816.159C69.7662 818.766 69.9371 821.386 69.9105 824.007C70.1863 826.618 70.2376 829.24 70.0641 831.855Z" fill="#FAFAFA"/>
<path d="M81.0208 831.541C80.4969 829.07 80.2485 826.57 80.2784 824.066C80.0058 821.566 80.0058 819.052 80.2784 816.552C80.8015 819.029 81.0498 821.537 81.0208 824.047C81.2928 826.541 81.2928 829.048 81.0208 831.541Z" fill="#FAFAFA"/>
<path d="M89.008 831.875C88.5044 826.72 88.5643 821.542 89.1872 816.395C89.5785 818.96 89.6898 821.546 89.52 824.125C89.627 826.715 89.4558 829.307 89.008 831.875Z" fill="#FAFAFA"/>
<path d="M96.5089 831.051C96.4388 828.342 96.6442 825.633 97.1233 822.948C97.3244 820.248 97.8037 817.565 98.5568 814.923C98.4195 820.332 97.7348 825.724 96.5089 831.051Z" fill="#FAFAFA"/>
<path d="M106.186 830.227C106.503 825.606 107.791 821.055 110 816.748C109.55 819.035 108.934 821.302 108.157 823.537C107.666 825.794 107.008 828.027 106.186 830.227Z" fill="#FAFAFA"/>
<path d="M21.7056 761.91V773.447C21.7022 774.042 21.8529 774.633 22.1489 775.184C22.4449 775.735 22.8803 776.236 23.4301 776.657C23.9799 777.079 24.6332 777.412 25.3522 777.639C26.0712 777.866 26.8417 777.981 27.6192 777.979H130.48C131.258 777.981 132.028 777.866 132.747 777.639C133.466 777.412 134.119 777.079 134.669 776.657C135.219 776.236 135.654 775.735 135.95 775.184C136.246 774.633 136.397 774.042 136.394 773.447V761.91H21.7056Z" fill="#EBEBEB"/>
<path d="M30.6145 777.979L31.4849 781.648L126.41 786.827L128.816 777.979H30.6145Z" fill="#E0E0E0"/>
<path d="M1441.61 113.175H1361.2V235.329H1441.61V113.175Z" fill="#F5F5F5"/>
<path d="M1531.59 113.175H1444.71V235.329H1531.59V113.175Z" fill="#F5F5F5"/>
<path d="M1531.59 243.864H1444.71V361.898H1531.59V243.864Z" fill="#F5F5F5"/>
<path d="M1542.73 111.075H1634.22V2.69458H1637.32V111.075H1711.77V0.300934H1542.73V111.075Z" fill="#F5F5F5"/>
<path d="M1711.79 113.175H1637.32V235.329H1711.79V113.175Z" fill="#F5F5F5"/>
<path d="M1711.79 243.864H1637.32V361.898H1711.79V243.864Z" fill="#F5F5F5"/>
<path d="M1441.61 243.864H1361.2V361.898H1441.61V243.864Z" fill="#F5F5F5"/>
<path d="M1634.22 243.864H1542.73V361.898H1634.22V243.864Z" fill="#F5F5F5"/>
<path d="M1441.61 364.017H1361.2V470.377H1441.61V364.017Z" fill="#F5F5F5"/>
<path d="M1711.79 364.017H1637.32V470.377H1711.79V364.017Z" fill="#F5F5F5"/>
<path d="M1441.61 111.075V2.69458H1444.71V111.075H1531.59V0.300934H1361.2V111.075H1441.61Z" fill="#F5F5F5"/>
<path d="M1634.22 364.017H1542.73V470.377H1634.22V364.017Z" fill="#F5F5F5"/>
<path d="M1531.59 364.017H1444.71V470.377H1531.59V364.017Z" fill="#F5F5F5"/>
<path d="M1634.22 113.175H1542.73V235.329H1634.22V113.175Z" fill="#F5F5F5"/>
<path d="M1288.83 29.1423H1090.45V280.808H1288.83V29.1423Z" fill="#E0E0E0"/>
<path d="M1282.25 29.1423H1083.88V280.808H1282.25V29.1423Z" fill="#EBEBEB"/>
<path d="M1273.8 34.2435H1092.32V275.687H1273.8V34.2435Z" fill="white"/>
<path d="M1238.45 65.6159H1126.86V244.315H1238.45V65.6159Z" fill="#EBEBEB"/>
<path d="M1126.86 181.06C1126.6 164.383 1146.19 148.079 1167.82 145.744C1178.06 144.645 1189.01 146.195 1198.54 143.174C1215.69 137.798 1221.14 120.316 1238.4 115.137L1239.19 244.295H1126.81L1126.86 181.06Z" fill="#E0E0E0"/>
</svg>
